<svg version="1.2" xmlns="http://www.w3.org/2000/svg" viewBox="0 0 336 450" width="336" height="450">
	<title>bottle</title>
	<style>
		.s0 { fill: #ffffff } 
	</style>
	<g id="&lt;Group&gt;">
		<path id="&lt;Compound Path&gt;" fill-rule="evenodd" class="s0" d="m336 270.3q0.3 43.7-2.2 87.4-0.6 11-1.4 22c-0.5 7-0.7 14-2.3 21-1.4 6.2-4.2 12.3-9.8 17.9-4.8 4.8-11.4 9.1-19.1 12.8-14 6.7-31.1 11.4-49.4 14.1-8.1 1.2-16.4 2.2-24.7 3-21.5 2-42.9 1.5-64.6 1.3-2.6-0.1-36.2-0.3-36.2-0.7-33.5-1.1-66.1-5.5-91.5-17.7-7.7-3.7-14.3-8-19.1-12.8-5.6-5.6-8.4-11.7-9.8-17.9-1.6-7-1.8-14-2.3-21q-0.8-11-1.4-22-2.5-43.7-2.2-87.4 0.2-22 1-44c0.6-14.1 0.4-28.4 3.1-42.5 2.5-12.6 8.7-24.6 21.2-35.5 10.2-8.9 23.9-16.7 40.2-22.7-1-1.7-0.5-3.9-0.5-5.6q-0.2-3.3-0.3-6.6-0.2-6.5-0.4-12.9-0.2-6.7-0.3-13.3 0-1.2 0-2.5c-7 1.5-16.2-0.2-19.2-4.2-2.6-3.5-1.7-7.8-1.9-11.5-0.3-3.9-0.8-7.9-0.7-11.9 0-3 1.3-6 5.5-8.2 3.5-1.9 8.5-2.8 13.4-3.4 5.9-0.6 11.9-1.1 18-1.4-2.7-6.3-4.2-12.7-6.1-19-0.9-3.1-2.1-6.2-2.6-9.4-0.4-2.5 0.5-5.1 3.9-7.1 5.7-3.3 15.2-4 23.2-4.7q16.1-1.5 32.4-2.4c22.4-1.2 45-1.7 67.5-1.4 11.1 0.1 22.1 0.6 33.1 1.2 8.7 0.6 20.9 0.5 23.6 5.8 1.2 2.4 0.4 4.9 0.1 7.2q-0.7 4.3-1.3 8.6l-2.7 17.8q0.6 0 1.2 0c6.1 0.1 12.4 0.1 18.4 0.8 5.1 0.6 9.8 2.1 12.2 4.6 2.8 2.8 2.7 6.2 3.2 9.3q1.9 11.2 3.8 22.3c0.2 1-1.5 1.8-3.2 2.1q-6.4 1.1-12.8 2.3-0.5 0-1 0.1 0 2.5 0 5-0.1 6.6-0.3 13.3-0.2 6.4-0.4 12.9-0.1 3.3-0.3 6.6c0 1.7 0.5 3.9-0.5 5.6 16.3 6 30 13.8 40.2 22.7 12.5 10.9 18.7 22.9 21.2 35.5 2.7 14.1 2.5 28.4 3.1 42.5q0.8 22 1 44zm-251.9-226.5c5.8-0.3 11.5-0.6 17.2-0.9 28.6-1.5 57.4-2.3 86.2-2.6q21.1-0.2 42.2 0.1 6.2 0.1 12.4 0.2 1.4-9.2 2.7-18.3 0.7-4.3 1.3-8.6c0.3-1.8 1.9-5.2-1.1-6.7-1.6-0.7-4.3-0.8-6.3-0.9q-3.8-0.3-7.6-0.5-6.8-0.4-13.7-0.8-15.6-0.7-31.2-1c-20.1-0.3-40.1 0.1-60 1.3q-15.7 0.9-31.3 2.5c-5.4 0.5-13 1.2-16.3 3.7 4 1.3 7.8 2.7 11.9 3.9 5 1.4 10.3 2.6 15.8 3.6 5.7 0.9 11.5 1.6 17.4 1.9 5.6 0.2 11.3 0 16.8 0.6 1.8 0.2 2.4 1.8 0.5 2.2-5.9 1.3-12.5 1-18.8 0.7-6.2-0.4-12.3-1.1-18.2-2.1-9.4-1.7-20-4.3-27.1-8.2-0.4 2.4 1 5 1.6 7.3q1 3.7 2 7.3c1.4 5.1 2.9 10.2 3.6 15.3zm-19.8 32.1q-1.2 0-2.3 0c-2 0-2.1-1.3-0.5-1.6 7.4-1.4 15.4-1.9 23.2-2.6q11.5-0.9 23.1-1.6c55.4-3.4 111-3 166.1 1.4 2.4 0.2 3.7 1.7 3.1 2.8-0.7 1.2-3 1.7-5.3 1.5q0.3 0.8 0.3 1.7 4-0.7 8.1-1.4-1.7-10.2-3.4-20.3c-0.5-2.7 0.2-6.9-3.9-8.9-3.7-1.7-9.7-1.6-14.4-1.8-50-1.6-100.3-1-150.1 1.4q-18.8 0.9-37.5 2.1c-4.8 0.3-10 0.6-14.4 1.7-4.7 1.2-6.2 3.4-6.4 6-0.5 6.3 0.6 12.7 1.1 19 0.1 2.3 0.5 4.9 5 6 2.5 0.6 5.3 0.6 7.9 0.1q0-0.4 0-0.8c0-1.5-0.2-3.2 0.3-4.7zm172.1-2.3q-5.5-0.3-10.9-0.5c-27.3-1.1-54.7-1.5-82.1-0.9q-20.3 0.3-40.5 1.4c-2.4 0.1-4.8 0.3-7.2 0.4 1.1 2 1.4 4.3 2 6.3q1.1 4.2 2.2 8.4 1.2 4.3 2.3 8.6c0.7 2.8 1 5.6 2 8.3 4.3 0.3 8.5 0.9 12.7 1.3 5.9 0.6 11.9 1 17.9 1.4 11.5 0.6 23 0.9 34.5 0.7 11.6-0.2 23.1-1 34.5-2.1q8.8-0.9 17.4-2 4.1-0.6 8.1-1.2c1.2-0.1 2.3-0.3 3.4-0.5-0.4-4.6 0.9-9.3 1.4-13.8 0.7-5.3 1.4-10.5 2.3-15.8zm90.2 207.1c0-28.2-0.4-56.5-2.6-84.7-0.9-12.6-3.4-25.4-13.1-37.2-8.4-10.2-21.4-19.4-37.4-26.7-4.1-1.9-8.3-3.6-12.7-5.3-2.7-1-1.7-2.9 0.6-3.4 0-1.1 0.3-2.1 0.3-3.1q0.2-3.3 0.4-6.6 0.5-6.8 1-13.6 0.5-6.6 1.1-13.2 0.2-3.3 0.6-6.6c0.2-1.6 0.2-3.3 1-4.9q-10.5-0.8-21.1-1.3c-0.9 5.1-2 10.2-3.2 15.3q-1 4.3-2 8.6c-0.4 1.9-0.9 3.8-1.6 5.6 1.3 0.4 1.5 1.4 0.9 2.1-1.5 1.4-4.5 1.7-7.3 2.1q-4.6 0.7-9.2 1.3-8.7 1.1-17.5 1.9c-11.7 1-23.6 1.5-35.5 1.6-11.9 0.2-23.8-0.1-35.7-0.8q-8.7-0.5-17.4-1.3c-5.1-0.5-10.7-1-15.7-2.1-1.9 0-3.9-0.6-3.9-1.9-0.2-3-1.2-5.9-1.8-8.8q-0.8-4.3-1.5-8.5-0.8-4.5-1.6-8.9c-0.4-1.9-1-4-0.8-6-2.9 0.2-5.7 0.3-8.5 0.5-4.1 0.3-8.1 0.6-12.1 0.9 0.7 1.5 0.7 3.1 0.9 4.6q0.4 3.3 0.6 6.6 0.6 6.6 1.1 13.2 0.5 6.8 1 13.6 0.2 3.3 0.4 6.6c0 1 0.3 2 0.3 3.1 2.3 0.5 3.3 2.4 0.6 3.4-4.4 1.7-8.6 3.4-12.7 5.3-16 7.3-29 16.5-37.4 26.7-9.7 11.8-12.2 24.6-13.1 37.2-2.2 28.2-2.6 56.5-2.6 84.7q0.1 42.5 2.7 85 0.7 10.7 1.5 21.3c0.5 6.6 0.9 13.2 3.8 19.7 4.8 10.4 17.7 19.2 34.7 25.3q5.6 2 11.8 3.7c10.4 2.8 21.7 4.8 33.2 6.2 12.2 1.4 24.3 1.8 36.8 2.1 27.1 0.6 54.4 0.8 81.4-0.4 24.4-1.1 48.3-4.3 68.6-11.6 17-6.1 29.9-14.9 34.7-25.3 2.9-6.5 3.3-13.1 3.8-19.7q0.8-10.6 1.5-21.3 2.6-42.5 2.7-85z"/>
		<path id="&lt;Path&gt;" class="s0" d="m235.7 16.8q1.7-0.5 3.3-1c0.5-0.2 1.1-0.3 1.6-0.5 0.5-0.2 1-0.4 1.4-0.7 0.3-0.3 0.4-0.5 0.4-0.8 0-0.5-0.6-0.8-1.3-0.9-1.7-0.4-3.3 0.3-4.6 0.8q-1.5 0.5-3.1 1.1c-0.5 0.1-0.9 0.4-1 0.7-0.2 0.3-0.1 0.6 0.2 0.9 0.7 0.5 2 0.8 3.1 0.4z"/>
		<path id="&lt;Path&gt;" class="s0" d="m53.1 145.4c-3.5-1.4-7.6 2-9.1 3.3-5.2 4.4-9.2 9.4-12.2 14.4-3.5 5.7-4.4 11.8-4.5 17.7 0 0.9 2.8 1.1 3.1 0.2 1.7-5.1 4.5-10.3 8-15.2 3.6-4.9 7.2-9.8 12.3-14.4 1.4-1.3 5.7-4.7 2.4-6z"/>
		<path id="&lt;Path&gt;" class="s0" d="m67.8 136.8q-0.4 0-0.9 0.1c-0.4 0.1-0.6 0.1-1 0.3q-0.1 0-0.2 0.1-0.7 0.2-1.3 0.5c-0.4 0.2-0.7 0.4-1.1 0.6l-1 0.6c-0.4 0.3-0.7 0.5-0.7 0.9 0 0.2 0.3 0.6 0.7 0.8 0.4 0.2 1 0.3 1.6 0.3 0.5 0 1.2-0.1 1.5-0.3q0.6-0.3 1.1-0.7c0.5-0.2 1-0.5 1.3-0.8q0.4-0.3 0.8-0.7c0.2-0.2 0.4-0.3 0.4-0.5q0.1-0.2 0.1-0.4c0.1-0.1 0-0.2 0-0.3-0.2-0.3-0.7-0.5-1.3-0.5z"/>
		<path id="&lt;Path&gt;" class="s0" d="m306.9 184.6c1.4-2.9 0.3-6-0.9-8.8-1.3-2.9-2.9-5.7-4.8-8.5-3.9-5.8-9-11-16.1-15.8-1.7-1.1-4.8-0.2-3.7 1.1 4.5 5.2 8.8 10.6 12.1 16.1 1.7 2.7 3.1 5.5 4.2 8.2 1.2 2.7 2 5.6 4.5 8 1.1 1 4.1 0.8 4.7-0.3z"/>
	</g>
</svg>